# xmcd CD database file
#
# Track frame offsets:
#	150
#	13577
#	25332
#	40204
#	52734
#	66836
#	79363
#	95435
#	110053
#	130485
#	143067
#	156569
#	170521
#	186278
#
# Disc length: 2680 seconds
#
# Revision: 0
# Processed by: cddbd v1.5.2PL0 Copyright (c) Steve Scherf et al.
# Submitted via: CDex 1.79
#
DISCID=c40a760e
DTITLE=Little Montana - Five
DYEAR=2014
DGENRE=Country
TTITLE0=My next broken heart
TTITLE1=Wine, women and song
TTITLE2=Balada Pelaut
TTITLE3=Pick me up on your way down
TTITLE4=Cabo San Lucas
TTITLE5=Close up the honky tonks
TTITLE6=Kalo tho pikir
TTITLE7=Home to Louisiana
TTITLE8=Neon moon
TTITLE9=What's not to love
TTITLE10=You lied to me
TTITLE11=Sweet little dangerous
TTITLE12=How far to Waco
TTITLE13=Tonight the bottle let me down
EXTD=YEAR: 2014
EXTT0=
EXTT1=
EXTT2=
EXTT3=
EXTT4=
EXTT5=
EXTT6=
EXTT7=
EXTT8=
EXTT9=
EXTT10=
EXTT11=
EXTT12=
EXTT13=
PLAYORDER=
